<svg width="24" height="24" viewBox="0 0 24 24" fill="none" xmlns="http://www.w3.org/2000/svg">
<g id="IMAGE" clip-path="url(#clip0_1_89)">
<path id="Vector" d="M1.33337 17.3334L7.44776 11.219C8.48915 10.1776 10.1776 10.1776 11.219 11.219L17.3334 17.3334H1.33337ZM14.6667 14.6667L16.7811 12.5523C17.8224 11.5109 19.511 11.5109 20.5523 12.5523L22.6667 14.6667H14.6667ZM14.6667 6.66671H14.68H14.6667ZM4.00004 22.6667H20C21.4728 22.6667 22.6667 21.4728 22.6667 20V4.00004C22.6667 2.52728 21.4728 1.33337 20 1.33337H4.00004C2.52728 1.33337 1.33337 2.52728 1.33337 4.00004V20C1.33337 21.4728 2.52728 22.6667 4.00004 22.6667Z" stroke="#FFC147" stroke-width="2" stroke-linecap="round" stroke-linejoin="round"/>
</g>
<defs>
<clipPath id="clip0_1_89">
<rect width="24" height="24" fill="white"/>
</clipPath>
</defs>
</svg>
