<svg width="24" height="24" viewBox="0 0 24 24" fill="none" xmlns="http://www.w3.org/2000/svg">
<g id="IMAGE">
<path id="Vector" fill-rule="evenodd" clip-rule="evenodd" d="M0.80011 2.99995C0.80011 2.00584 1.51646 1.19995 2.40011 1.19995H21.6001C22.4837 1.19995 23.2001 2.00584 23.2001 2.99995C23.2001 3.99406 22.4837 4.79995 21.6001 4.79995H2.40011C1.51646 4.79995 0.80011 3.99406 0.80011 2.99995Z" fill="#FFC147"/>
<path id="Vector_2" fill-rule="evenodd" clip-rule="evenodd" d="M0.80011 12C0.80011 11.0058 1.51646 10.2 2.40011 10.2H21.6001C22.4837 10.2 23.2001 11.0058 23.2001 12C23.2001 12.9941 22.4837 13.8 21.6001 13.8H2.40011C1.51646 13.8 0.80011 12.9941 0.80011 12Z" fill="#FFC147"/>
<path id="Vector_3" fill-rule="evenodd" clip-rule="evenodd" d="M0.80011 21C0.80011 20.0058 1.51646 19.2 2.40011 19.2H12.0001C12.8838 19.2 13.6001 20.0058 13.6001 21C13.6001 21.994 12.8838 22.7999 12.0001 22.7999H2.40011C1.51646 22.7999 0.80011 21.994 0.80011 21Z" fill="#FFC147"/>
</g>
</svg>
