<svg width="24" height="24" viewBox="0 0 24 24" fill="none" xmlns="http://www.w3.org/2000/svg">
<g id="IMAGE" clip-path="url(#clip0_1_103)">
<path id="Vector" fill-rule="evenodd" clip-rule="evenodd" d="M3.35986 0.47998C1.76928 0.47998 0.479858 1.7694 0.479858 3.35998V19.2C0.479858 21.5858 2.41399 23.52 4.79986 23.52C7.18573 23.52 9.11986 21.5858 9.11986 19.2V3.35998C9.11986 1.7694 7.83044 0.47998 6.23986 0.47998H3.35986ZM4.79986 20.64C5.59514 20.64 6.23986 19.9953 6.23986 19.2C6.23986 18.4047 5.59514 17.76 4.79986 17.76C4.00457 17.76 3.35986 18.4047 3.35986 19.2C3.35986 19.9953 4.00457 20.64 4.79986 20.64Z" fill="#FFC147"/>
<path id="Vector_2" d="M11.9999 18.1093L19.0552 11.054C20.1798 9.9293 20.1798 8.10578 19.0552 6.98107L17.0186 4.94461C15.894 3.8199 14.0705 3.8199 12.9457 4.94461L11.9999 5.89046V18.1093Z" fill="#FFC147"/>
<path id="Vector_3" d="M20.6399 23.52H10.6622L19.3023 14.88H20.6399C22.2305 14.88 23.5199 16.1694 23.5199 17.76V20.64C23.5199 22.2306 22.2305 23.52 20.6399 23.52Z" fill="#FFC147"/>
</g>
<defs>
<clipPath id="clip0_1_103">
<rect width="24" height="24" fill="white"/>
</clipPath>
</defs>
</svg>
