<svg width="24" height="24" viewBox="0 0 24 24" fill="none" xmlns="http://www.w3.org/2000/svg">
<g id="IMAGE" clip-path="url(#clip0_1_192)">
<g id="Group">
<path id="Vector" fill-rule="evenodd" clip-rule="evenodd" d="M2.88 0C1.28942 0 0 1.28942 0 2.88V18.72C0 21.1058 1.93414 23.04 4.32 23.04C6.70588 23.04 8.64 21.1058 8.64 18.72V2.88C8.64 1.28942 7.35058 0 5.76 0L2.88 0ZM4.32 20.16C5.11529 20.16 5.76 19.5152 5.76 18.72C5.76 17.9248 5.11529 17.28 4.32 17.28C3.52471 17.28 2.88 17.9248 2.88 18.72C2.88 19.5152 3.52471 20.16 4.32 20.16Z" fill="white"/>
<path id="Vector_2" d="M11.52 17.6293L18.5753 10.574C19.6999 9.44932 19.6999 7.62581 18.5753 6.5011L16.5388 4.46463C15.4141 3.33992 13.5906 3.33992 12.4659 4.46463L11.52 5.41048V17.6293Z" fill="white"/>
<path id="Vector_3" d="M20.16 23.0399H10.1823L18.8224 14.3999H20.16C21.7506 14.3999 23.04 15.6893 23.04 17.2799V20.1599C23.04 21.7505 21.7506 23.0399 20.16 23.0399Z" fill="white"/>
</g>
</g>
<defs>
<clipPath id="clip0_1_192">
<rect width="24" height="24" fill="white"/>
</clipPath>
</defs>
</svg>
