<svg width="24" height="24" viewBox="0 0 24 24" fill="none" xmlns="http://www.w3.org/2000/svg">
<g id="IMAGE" clip-path="url(#clip0_1_181)">
<g id="Group">
<path id="Vector" d="M1.44 0C0.64471 0 0 0.614009 0 1.37143C0 2.12885 0.64471 2.74286 1.44 2.74286H3.19568L3.63569 4.41907C3.64031 4.43846 3.64536 4.45768 3.65083 4.47674L5.60524 11.9222L4.31993 13.1462C2.50564 14.8742 3.79058 17.8286 6.3564 17.8286H18.7199C19.5152 17.8286 20.1599 17.2145 20.1599 16.4571C20.1599 15.6998 19.5152 15.0857 18.7199 15.0857H6.3564L7.7964 13.7143H17.28C17.8254 13.7143 18.324 13.4208 18.568 12.9562L22.888 4.72761C23.1112 4.30248 23.0873 3.7976 22.825 3.39328C22.5625 2.98896 22.0991 2.74286 21.6 2.74286H6.16432L5.717 1.03881C5.55674 0.428294 4.98077 0 4.32 0L1.44 0Z" fill="white"/>
<path id="Vector_2" d="M20.16 21.2571C20.16 22.3932 19.1929 23.3142 18 23.3142C16.8071 23.3142 15.84 22.3932 15.84 21.2571C15.84 20.121 16.8071 19.2 18 19.2C19.1929 19.2 20.16 20.121 20.16 21.2571Z" fill="white"/>
<path id="Vector_3" d="M6.48001 23.3142C7.67294 23.3142 8.64001 22.3932 8.64001 21.2571C8.64001 20.121 7.67294 19.2 6.48001 19.2C5.28708 19.2 4.32001 20.121 4.32001 21.2571C4.32001 22.3932 5.28708 23.3142 6.48001 23.3142Z" fill="white"/>
</g>
</g>
<defs>
<clipPath id="clip0_1_181">
<rect width="24" height="24" fill="white"/>
</clipPath>
</defs>
</svg>
