<svg width="24" height="24" viewBox="0 0 24 24" fill="none" xmlns="http://www.w3.org/2000/svg">
<g id="IMAGE" clip-path="url(#clip0_1_203)">
<g id="Group">
<path id="Vector" d="M5.04 15.7091C2.25648 15.7091 0 13.6577 0 11.1273C0 8.75995 1.9749 6.81195 4.50866 6.57061C4.38556 6.14463 4.32 5.69746 4.32 5.23636C4.32 2.3444 6.89884 0 10.08 0C12.7855 0 15.0554 1.69576 15.6737 3.98193C15.9635 3.94588 16.2593 3.92727 16.56 3.92727C20.1388 3.92727 23.04 6.56472 23.04 9.81818C23.04 13.0716 20.1388 15.7091 16.56 15.7091H12.96V11.015L14.8218 12.7075C15.3841 13.2188 16.2959 13.2188 16.8582 12.7075C17.4206 12.1963 17.4206 11.3674 16.8582 10.8561L12.5382 6.92888C11.9759 6.41764 11.0641 6.41764 10.5018 6.92888L6.18176 10.8561C5.61941 11.3674 5.61941 12.1963 6.18176 12.7075C6.74412 13.2188 7.65588 13.2188 8.21824 12.7075L10.08 11.015V15.7091H5.04Z" fill="white"/>
<path id="Vector_2" d="M10.08 15.709H12.96V22.2544C12.96 22.9774 12.3153 23.5635 11.52 23.5635C10.7247 23.5635 10.08 22.9774 10.08 22.2544V15.709Z" fill="white"/>
</g>
</g>
<defs>
<clipPath id="clip0_1_203">
<rect width="24" height="24" fill="white"/>
</clipPath>
</defs>
</svg>
